<svg id="TEMPLATE" xmlns="http://www.w3.org/2000/svg" xmlns:xlink="http://www.w3.org/1999/xlink" viewBox="0 0 330.9 255.12"><defs><style>.cls-1{fill:#39b54a;stroke:#fff200;}.cls-1,.cls-11,.cls-17,.cls-18,.cls-19,.cls-20,.cls-21,.cls-32{stroke-miterlimit:10;}.cls-1,.cls-17,.cls-18,.cls-19,.cls-20,.cls-21{stroke-width:0.5px;}.cls-12,.cls-13,.cls-14,.cls-15,.cls-16,.cls-2,.cls-23,.cls-24,.cls-25,.cls-26,.cls-27,.cls-28,.cls-29,.cls-30,.cls-32,.cls-5,.cls-6,.cls-7,.cls-8,.cls-9{fill:none;}.cls-3{fill:#231f20;}.cls-4{fill:url(#radial-gradient);}.cls-17,.cls-18,.cls-19,.cls-20,.cls-21,.cls-23,.cls-24,.cls-25,.cls-26,.cls-27,.cls-28,.cls-29,.cls-30,.cls-32,.cls-5,.cls-6,.cls-7,.cls-8,.cls-9{stroke:#000;}.cls-12,.cls-13,.cls-14,.cls-15,.cls-16,.cls-5,.cls-6,.cls-7,.cls-8,.cls-9{stroke-miterlimit:11.34;}.cls-5{stroke-width:2.83px;}.cls-6{stroke-width:0.75px;}.cls-7{stroke-width:0.62px;}.cls-8{stroke-width:0.64px;}.cls-9{stroke-width:0.59px;}.cls-10,.cls-11,.cls-31{isolation:isolate;}.cls-11{font-size:38.81px;stroke:#fff;stroke-width:0.25px;}.cls-11,.cls-22{font-family:AgencyFB-Reg, Agency FB;}.cls-12{stroke:red;stroke-width:4.3px;}.cls-12,.cls-13,.cls-14,.cls-15,.cls-16{stroke-linecap:round;}.cls-13{stroke:orange;stroke-width:4.23px;}.cls-14{stroke:#ffe700;stroke-width:4.14px;}.cls-15{stroke:#00ca00;stroke-width:4.04px;}.cls-16{stroke:#0067ff;stroke-width:3.91px;}.cls-17{fill:url(#Water_With_Horizon_5);}.cls-18{fill:url(#Water_With_Horizon_5-2);}.cls-19{fill:url(#Water_With_Horizon_5-3);}.cls-20{fill:url(#Water_With_Horizon_5-4);}.cls-21{fill:url(#Water_With_Horizon_5-5);}.cls-22{font-size:8px;}.cls-23,.cls-24,.cls-25,.cls-26,.cls-27,.cls-28{stroke-miterlimit:2.03;}.cls-23{stroke-width:0.51px;}.cls-24{stroke-width:0.62px;}.cls-25{stroke-width:0.25px;}.cls-26{stroke-width:0.21px;}.cls-27{stroke-width:0.14px;}.cls-28{stroke-width:0.25px;}.cls-29{stroke-miterlimit:2.03;stroke-width:0.25px;}.cls-30{stroke-miterlimit:2.03;stroke-width:0.25px;}.cls-31{font-size:5.34px;font-family:ArialMT, Arial;}</style><radialGradient id="radial-gradient" cx="165.74" cy="93.01" r="5.4" gradientTransform="translate(345.3 -64.15) rotate(90) scale(1.31 1.31)" gradientUnits="userSpaceOnUse"><stop offset="0" stop-color="#f0615e"/><stop offset="1" stop-color="#b01b28"/></radialGradient><linearGradient id="Water_With_Horizon_5" x1="241.15" y1="212.96" x2="241.15" y2="187.86" gradientUnits="userSpaceOnUse"><stop offset="0" stop-color="#283f7a"/><stop offset="0.12" stop-color="#88526f"/><stop offset="0.25" stop-color="#ed6f5f"/><stop offset="0.35" stop-color="#ee8051"/><stop offset="0.43" stop-color="#ee874c"/><stop offset="0.54" stop-color="#f4bb66"/><stop offset="0.55" stop-color="#e8bc72"/><stop offset="0.55" stop-color="#bdc09d"/><stop offset="0.55" stop-color="#9ec3bc"/><stop offset="0.55" stop-color="#8bc5cf"/><stop offset="0.55" stop-color="#84c6d6"/><stop offset="0.67" stop-color="#009eb3"/><stop offset="0.91" stop-color="#428b9d"/><stop offset="1" stop-color="#00838f"/></linearGradient><linearGradient id="Water_With_Horizon_5-2" x1="253.6" y1="212.96" x2="253.6" y2="187.86" xlink:href="#Water_With_Horizon_5"/><linearGradient id="Water_With_Horizon_5-3" x1="268.66" y1="212.96" x2="268.66" y2="187.86" xlink:href="#Water_With_Horizon_5"/><linearGradient id="Water_With_Horizon_5-4" x1="283.79" y1="212.96" x2="283.79" y2="187.86" xlink:href="#Water_With_Horizon_5"/><linearGradient id="Water_With_Horizon_5-5" x1="299.46" y1="212.96" x2="299.46" y2="187.86" xlink:href="#Water_With_Horizon_5"/></defs><g id="Layer_3" data-name="Layer 3"><path class="cls-1" d="M258.66,234.83c.16-.82.36-1.63.46-2.44.27-2.09.58-4.17.69-6.25a6.61,6.61,0,0,0-.59-2.68c-.64-1.59-2.24-2-4.26-1.31a22.82,22.82,0,0,0-6.14,3.64,117,117,0,0,0-14.15,13.39c-2.26,2.42-4.46,4.87-6.78,7.28a3.7,3.7,0,0,1,.21-.33,179.62,179.62,0,0,0,13.48-18.37c1.74-2.81,3.43-5.67,4-8.74a7.51,7.51,0,0,0,.11-2.45c-.18-1.4-1.27-2.15-3-2.2a15.56,15.56,0,0,0-6,1.2c-2.7,1-5.35,2.14-7.93,3.18,1.23-.71,2.57-1.46,3.89-2.23a55.54,55.54,0,0,0,9.88-6.83,11,11,0,0,0,2-2.45c.82-1.4.3-2.48-1.29-3.08a19.56,19.56,0,0,0-6.54-.86,109.68,109.68,0,0,0-12.88.93,5.82,5.82,0,0,1-.84,0c1.4-.3,2.81-.59,4.2-.91a30.91,30.91,0,0,0,8.24-2.88c3-1.67,3.79-3.87,2.16-6.22a16.17,16.17,0,0,0-4.84-4.15,62.38,62.38,0,0,0-11.26-5.55c-5.26-2-10.62-3.88-15.94-5.8a1.12,1.12,0,0,1-.59-.37c.89.24,1.78.46,2.66.71,7.11,2,14.27,3.83,21.62,5.32a79.1,79.1,0,0,0,12.7,1.76c1.27.05,2.57-.07,3.86-.12a1,1,0,0,0,.25,0c2.22-.41,3.25-1.64,2.38-3.22a29.47,29.47,0,0,0-3-4c-.44-.53-1-1-1.44-1.53.7.47,1.38,1,2.09,1.41a24.78,24.78,0,0,0,7.94,3.59c4.4,1,8-.47,10.24-4.05a21.71,21.71,0,0,0,3.06-8.57c.48-3.22.69-6.45,1-9.68a9.89,9.89,0,0,0,0-1.09s.06-.08.13-.2c.11,1.12.19,2.18.3,3.23a34.83,34.83,0,0,0,3,12.16,8.81,8.81,0,0,0,4,4.29,7.72,7.72,0,0,0,6.34.09,28.56,28.56,0,0,0,9.16-6.09c.82-.75,1.63-1.51,2.53-2.35-.82,1.14-1.56,2.18-2.32,3.21a27.92,27.92,0,0,0-4.37,7.48,8.65,8.65,0,0,0-.38,1.64c-.24,2,1.05,3.2,3.42,3.36a19.74,19.74,0,0,0,7-.92c3.83-1.17,7.6-2.51,11.4-3.78a.35.35,0,0,1,.25,0c-.8.38-1.64.72-2.39,1.16-2.34,1.38-4.68,2.76-7,4.23a8.85,8.85,0,0,0-1.95,1.86c-1.6,1.93-1.13,3.82,1.21,5.1a27.43,27.43,0,0,0,8.79,2.57,146.77,146.77,0,0,0,20.11,1.57,29.87,29.87,0,0,1,3.13.19l-5.5.24a108.58,108.58,0,0,0-16.22,1.77,26.51,26.51,0,0,0-8.62,3c-3.27,1.93-4.4,4.51-3,7.27A21.42,21.42,0,0,0,300.4,214c2.35,2.73,5.58,4.77,8.57,7a3.22,3.22,0,0,1-.37-.12c-.14-.06-.26-.14-.4-.21-3.68-1.91-7.27-3.92-11.07-5.67a86.64,86.64,0,0,0-8.71-3.22,14.43,14.43,0,0,0-3.77-.6c-3-.14-4.6,1.13-4.58,3.65a15.7,15.7,0,0,0,1.49,5.82,2,2,0,0,1,.19.86,18.42,18.42,0,0,0-1.42-2.1,29,29,0,0,0-3.79-4c-2.81-2.16-5.79-1.74-8.57,1a23,23,0,0,0-4.92,7.43c-1.43,3.31-2.64,6.68-3.94,10-.13.31-.23.62-.34.94Zm-24-32.61c.35,0,.74,0,1.13,0a27.41,27.41,0,0,1,7.28.67c2.51.67,3.66,2.15,3,4a6.09,6.09,0,0,1-1.4,2.21c-1.34,1.32-2.85,2.52-4.29,3.77-.24.2-.51.39-.86.64.91-.1,1.64-.22,2.37-.26,3.26-.17,5,1.06,5.25,3.65a6.62,6.62,0,0,1-.14,1.65,28.55,28.55,0,0,1-3.88,8.86c-.69,1.16-1.43,2.31-2.17,3.5,2.22-1.9,4.34-3.78,6.56-5.59a23.72,23.72,0,0,1,7.11-4.24c2.54-.9,4.81-.23,5.72,1.69.3.64.49,1.33.75,2,.63-1.22,1.21-2.4,1.85-3.57a22.12,22.12,0,0,1,4.61-6c2.86-2.51,6.31-2.9,9.29-1.05.61.38,1.18.81,1.82,1.26,0-.23,0-.39,0-.55.1-3.23,2.4-5,6.3-4.77a25.05,25.05,0,0,1,7.54,1.77c2.16.81,4.25,1.71,6.2,2.5-.72-1.09-1.58-2.26-2.29-3.5a5.84,5.84,0,0,1-.61-4.7c.61-2,2.25-3.48,4.36-4.63a31.19,31.19,0,0,1,8.77-2.9c1.43-.28,2.86-.53,4.28-.79a.7.7,0,0,0-.38-.13c-3-.45-5.94-.83-8.87-1.37a18.13,18.13,0,0,1-6.69-2.5c-2.33-1.54-2.67-3.82-.84-6.08.63-.77,1.4-1.46,2.18-2.27-.56.14-1,.31-1.52.39-2.07.32-4.15.78-6.21.9-3.46.19-5.6-1.44-5.46-4a10.38,10.38,0,0,1,.69-2.94,27.79,27.79,0,0,1,1.31-2.81c-1.41.71-2.81,1.52-4.29,2.17-3.61,1.57-7.05,1.25-9.66-.87a12.74,12.74,0,0,1-3.77-5.64c-.35-.91-.64-1.85-1-2.77a2.39,2.39,0,0,0-.27.74,22.8,22.8,0,0,1-3.25,8.25c-2.7,4-6.85,5.55-11.81,4.38-1.28-.3-2.49-.77-3.67-1.14.07.28.17.6.24.93.34,1.61-.74,3.12-2.72,3.68a13.81,13.81,0,0,1-2.84.47c-4.58.27-8.88-.53-13.18-1.29-2-.35-3.93-.77-5.9-1.17a2.79,2.79,0,0,0,.69.44c2.74,1.46,5.54,2.85,8.18,4.41a12.93,12.93,0,0,1,5.05,4.86,4.28,4.28,0,0,1-1.28,5.48A36.84,36.84,0,0,1,234.71,202.22Z"/></g><rect id="INVISIBLE_BORDER" class="cls-2" width="327.4" height="255.12"/><path class="cls-3" d="M223.15,156.21a2.68,2.68,0,1,0-2.69-2.68A2.68,2.68,0,0,0,223.15,156.21Zm.25-.52v-2h1.91A2.17,2.17,0,0,1,223.4,155.69Zm0-2.49v-1.83a2.18,2.18,0,0,1,1.89,1.83Zm-.5-1.83v1.83H221A2.16,2.16,0,0,1,222.9,151.37Zm0,2.33v2a2.18,2.18,0,0,1-1.92-2Z"/><path class="cls-4" d="M223.15,160.62a7.09,7.09,0,1,1,7.08-7.09A7.09,7.09,0,0,1,223.15,160.62Z"/><path id="path2408" class="cls-5" d="M194.75,69.49a42.52,42.52,0,1,1-60.1-2,42.51,42.51,0,0,1,60.1,2"/><path id="path30171" class="cls-6" d="M30.14,99.56h16.6V85.78H66.25V110H85.76V85.1H104.1V98.66h15.43"/><path id="path30173" class="cls-7" d="M201.07,79.19l9.16-1.72-1.39-4.81,5.72-1.07,3.63,12.56,4.35-.82-5.92-20.5,5.26-1,2.19,7.57,4.81-.9,2.4,8.31,4.81-.91L230.33,56l5-.94,7.79,27,5.5-1-3.15-10.9,4.58-.86-2-6.83,4.58-.86-3.36-11.64,5.27-1,8.48,29.37,5.27-1-2.4-8.31,5-1-2.51-8.68,3.9-.73-2.51-8.68,4.81-.91,4.21,14.59,6.18-1.16"/><path id="path30173-1" class="cls-8" d="M199.74,121.51l9.41,2,1.63-4.94,5.88,1.27-4.27,12.9,4.46,1,7-21,5.41,1.16-2.58,7.78,4.94,1.07-2.83,8.53,4.94,1.07,6.78-20.49,5.18,1.11-9.18,27.7,5.64,1.22,3.71-11.19,4.71,1,2.32-7,4.7,1,4-12,5.41,1.17L257,145l5.41,1.17,2.82-8.54,5.18,1.12,2.95-8.92,4,.86,2.95-8.91,4.94,1.06-5,15,6.35,1.37"/><path id="path30173-1-2" class="cls-9" d="M303.14,94.21l-6.06,0,.13,14.32-4.72,0-.08-8.52-3.82,0-.08-8.52-4.94,0-.07-8.15-5.17,0,.26,28.82-5.16,0-.11-11.42-4.49,0-.06-6.71-4.5,0-.09-10.7-5.4,0,.25,26.47-4.94,0-.18-19.58-4.72,0,.07,8.16-4.72,0,.07,7.43-5.16,0-.19-20.12-4.27,0,.12,12.33-5.62,0,0-4.71-9,0v12.65H216v-6.7H205.86"/><g id="text4712" class="cls-10"><text class="cls-11" transform="translate(147.55 206.09)">bit box</text></g><path id="path22844" class="cls-12" d="M19.74,179.82H141.63"/><path id="path22844-9" class="cls-13" d="M23.38,185.88H141.63"/><path id="path22844-9-6" class="cls-14" d="M28.66,192h113"/><path id="path22844-9-6-2" class="cls-15" d="M34.07,198H141.63"/><path id="path22844-9-6-2-3" class="cls-16" d="M40.82,204.07H141.63"/><path class="cls-17" d="M246.87,191.18h-4.14L238.89,213h-3.74L239,191.18h-4.14l.59-3.32h12Z"/><path class="cls-18" d="M257.9,210.67a2.49,2.49,0,0,1-2.72,2.29h-8c-1.52,0-2.14-.76-1.87-2.29l4-22.81h3.75l-3.85,21.88h5.05l3.86-21.88h3.75Z"/><path class="cls-19" d="M273.36,213h-3.92l-2.08-11.66.4-2.26h3.69l1.4-8h-4.73L264.26,213h-3.75l4.43-25.1h10c1.51,0,2.12.77,1.85,2.31l-1.61,9.12a2.45,2.45,0,0,1-1.43,2.06,8.23,8.23,0,0,1-2.48.24Z"/><path class="cls-20" d="M288.38,210.67a2.48,2.48,0,0,1-2.7,2.29h-10l4.43-25.1h10c1.49,0,2.09.77,1.82,2.31l-1.14,6.46a3,3,0,0,1-1.15,2c-.09.07-.81.48-2.17,1.24,1.13.78,1.73,1.21,1.79,1.28a2.22,2.22,0,0,1,.5,2.07ZM286.9,197.1,288,191h-4.71L282,198.38h2.88Zm-2.14,12.7,1.26-7.15-1.63-1.22h-2.95L280,209.8Z"/><path class="cls-21" d="M304,210.67A2.47,2.47,0,0,1,301.3,213h-8.15c-1.48,0-2.09-.76-1.82-2.29l3.61-20.5a2.46,2.46,0,0,1,2.64-2.31h8.15c1.52,0,2.14.77,1.87,2.31Zm-3.59-.93,3.29-18.66h-5.15l-3.29,18.66Z"/><g id="POWER_LABEL"><path class="cls-3" d="M156,11.78a2.54,2.54,0,0,0,2.52-2.29h3.15a2.53,2.53,0,0,0,2.52,2.29,2.51,2.51,0,0,0,1.38-.41l-.27-.42a2,2,0,0,1-1.11.33,2,2,0,1,1,0-4.09,2,2,0,0,1,1.14.35l.28-.41a2.48,2.48,0,0,0-1.42-.44A2.53,2.53,0,0,0,161.69,9h-3.15A2.54,2.54,0,1,0,156,11.78Zm0-4.59a2,2,0,1,1-2,2.05A2.05,2.05,0,0,1,156,7.19Z"/><polygon class="cls-3" points="155.9 10.45 156.15 10.45 156.15 9.36 157.24 9.36 157.24 9.11 156.15 9.11 156.15 8.02 155.9 8.02 155.9 9.11 154.81 9.11 154.81 9.36 155.9 9.36 155.9 10.45"/><rect class="cls-3" x="170.16" y="9.11" width="2.43" height="0.25"/><path class="cls-3" d="M165.29,9a1,1,0,0,0-.95-.76,1,1,0,1,0,0,2,1,1,0,0,0,.95-.76h3.57a2.55,2.55,0,1,0,0-.5Zm6.09-1.8a2,2,0,1,1-2,2.05A2,2,0,0,1,171.38,7.19Z"/><text class="cls-22" transform="translate(157.18 19.92)">9vDC</text></g><text class="cls-22" transform="translate(259.12 16.83)">midi</text><text class="cls-22" transform="translate(57.75 16.83)">output</text><g id="HFX_LOGO"><path class="cls-3" d="M83.22,231.77H81.87a.26.26,0,0,0-.31.31V234H80.1v-1.9a.26.26,0,0,0-.31-.31H78.44a.27.27,0,0,0-.32.31v5.66a.27.27,0,0,0,.32.31h1.35a.26.26,0,0,0,.31-.31V235.8h1.46v1.94a.26.26,0,0,0,.31.31h1.35a.27.27,0,0,0,.32-.31v-5.66a.27.27,0,0,0-.32-.31Z"/><path class="cls-3" d="M92.38,234l-.76-2a.37.37,0,0,0-.16-.22.45.45,0,0,0-.27-.07H88.84a.49.49,0,0,0-.28.07.41.41,0,0,0-.16.22l-.76,2a6.53,6.53,0,0,0-.26.79,2.92,2.92,0,0,0-.08.6v2.31a.26.26,0,0,0,.31.31h1.28a.27.27,0,0,0,.32-.31v-1.23h1.54v1.23a.33.33,0,0,0,.08.24.4.4,0,0,0,.26.07h1.32a.26.26,0,0,0,.31-.31v-2.31a2.36,2.36,0,0,0-.08-.6A5.14,5.14,0,0,0,92.38,234Zm-3.08.89.41-1.33.07-.11.09,0h.22l.09,0,.07.11.41,1.33Z"/><path class="cls-3" d="M101.53,231.77h-1.31a.33.33,0,0,0-.24.07.38.38,0,0,0-.07.24v1.86L98.22,232a.77.77,0,0,0-.23-.19.84.84,0,0,0-.29,0h-.9a.27.27,0,0,0-.32.31v5.66a.27.27,0,0,0,.32.31h1.3a.3.3,0,0,0,.24-.07.33.33,0,0,0,.08-.24v-2.88l1.49,1.8v1.08a.38.38,0,0,0,.07.24.33.33,0,0,0,.24.07h1.31a.27.27,0,0,0,.32-.31v-5.66a.27.27,0,0,0-.32-.31Z"/><path class="cls-3" d="M109,231.77h-2.94a.26.26,0,0,0-.31.31v5.66a.26.26,0,0,0,.31.31H109a2.51,2.51,0,0,0,1.62-.44,1.65,1.65,0,0,0,.53-1.34v-2.72a1.63,1.63,0,0,0-.53-1.34A2.51,2.51,0,0,0,109,231.77Zm.18,4.2a.45.45,0,0,1-.11.33.38.38,0,0,1-.3.1h-1v-3h1a.38.38,0,0,1,.3.1.4.4,0,0,1,.11.31Z"/><path class="cls-3" d="M119.77,231.77h-1.3a.26.26,0,0,0-.31.31v1.43a1.28,1.28,0,0,1,0,.19.45.45,0,0,1-.07.18l-.4.63-.09.11-.12,0h-.09l-.12,0-.09-.11-.4-.63a.45.45,0,0,1-.07-.18c0-.07,0-.13,0-.19v-1.43a.26.26,0,0,0-.31-.31H115a.3.3,0,0,0-.24.07.33.33,0,0,0-.08.24v1.68a1.81,1.81,0,0,0,.07.6,1.75,1.75,0,0,0,.26.47l1.34,1.79v1.12a.26.26,0,0,0,.31.31h1.41a.31.31,0,0,0,.24-.07.33.33,0,0,0,.08-.24v-1.11l1.32-1.8a2.18,2.18,0,0,0,.27-.47,2.12,2.12,0,0,0,.07-.6v-1.68a.27.27,0,0,0-.32-.31Z"/><path class="cls-3" d="M141.83,231.77h-3.89a.26.26,0,0,0-.31.31v5.66a.26.26,0,0,0,.31.31h1.35a.27.27,0,0,0,.32-.31V236h1.51a.28.28,0,0,0,.32-.32v-1a.28.28,0,0,0-.32-.32h-1.51v-.9h2.22a.27.27,0,0,0,.31-.32v-1.07a.4.4,0,0,0-.07-.21A.33.33,0,0,0,141.83,231.77Z"/><path class="cls-3" d="M150.52,231.77h-1.33a.26.26,0,0,0-.31.31v.61a1.21,1.21,0,0,1,0,.18.45.45,0,0,1-.07.18l-.39.55-.1.11-.11,0h-.11l-.11,0-.1-.11-.38-.55a.45.45,0,0,1-.07-.18c0-.07,0-.13,0-.18v-.61a.26.26,0,0,0-.31-.31h-1.34a.3.3,0,0,0-.24.07.33.33,0,0,0-.08.24v.68a1.89,1.89,0,0,0,.07.6,1.75,1.75,0,0,0,.26.47l.71.95-.71.95a2.08,2.08,0,0,0-.26.47,1.85,1.85,0,0,0-.07.6v.94a.33.33,0,0,0,.08.24.3.3,0,0,0,.24.07h1.32a.27.27,0,0,0,.32-.31v-1.05a.4.4,0,0,1,.07-.18l.4-.55.09-.12.12,0h.12l.11,0,.1.12.38.55a.4.4,0,0,1,.07.18,1.09,1.09,0,0,1,0,.18v.87a.26.26,0,0,0,.31.31h1.33a.26.26,0,0,0,.31-.31v-.94a2.25,2.25,0,0,0-.06-.6,2.18,2.18,0,0,0-.27-.47l-.71-.94.71-1a1.75,1.75,0,0,0,.26-.47,1.89,1.89,0,0,0,.07-.6v-.68a.26.26,0,0,0-.31-.31Z"/><path class="cls-3" d="M132.25,233.43a.48.48,0,0,0,0-.48.54.54,0,0,0-.47-.21L129,233l1-6.59a.5.5,0,0,0-.95-.28l-4.63,9.68a.46.46,0,0,0,0,.48.52.52,0,0,0,.47.21l2.79-.27-.83,5.52-.16,1.07a.49.49,0,0,0,.35.54l.15,0a.48.48,0,0,0,.45-.28l1.07-2.24,3.56-7.44Z"/></g><g id="DJK_LOGO"><path id="path841" d="M185.77,237.9a1.73,1.73,0,0,1-.51,1.28,1.77,1.77,0,0,1-1.29.49h-2.24v-9.79H184a1.74,1.74,0,0,1,1.29.5,1.69,1.69,0,0,1,.51,1.27Zm-.87-.09v-6.09a1,1,0,0,0-.31-.77,1.06,1.06,0,0,0-.78-.3H182.6v8.25h1.16a1.13,1.13,0,0,0,.82-.29A1,1,0,0,0,184.9,237.81Z"/><path id="path843" d="M190.74,239a.65.65,0,0,1-.69.69h-2.28a.65.65,0,0,1-.69-.69v-2.49H188v2.41h1.92v-9h.87Z"/><path id="path845" d="M196.4,239.67h-1L193.18,235v4.71h-.87v-9.79h.87v4.4l2-4.4h1v.05L194,234.6Z"/><path id="path847" d="M210.78,239a.69.69,0,0,1-.2.5.64.64,0,0,1-.49.19h-2.47a.68.68,0,0,1-.5-.19.69.69,0,0,1-.2-.5v-2.49h.87v2.41h2.12v-2.33l-2.71-3.27a1.18,1.18,0,0,1-.28-.74v-2a.69.69,0,0,1,.2-.5.68.68,0,0,1,.5-.19h2.47a.64.64,0,0,1,.49.19.69.69,0,0,1,.2.5v2.28h-.87v-2.2h-2.12v2.06l2.72,3.27a1.12,1.12,0,0,1,.27.73Z"/><path id="path849" d="M216.25,229.93l-1.19,4c-.15.4-.34,1.06-.59,2v3.79h-.87v-3.79a7.14,7.14,0,0,0-.27-1c-.2-.6-.31-.93-.32-1l-1.19-4v-.05h.88l1.34,4.9,1.34-4.9h.87Z"/><path id="path851" d="M221.35,239.67h-.6l-2.61-7.2v7.2h-.82v-9.79H218l2.56,7.08v-7.08h.82Z"/><path id="path853" d="M226.29,230.65h-1.51v9h-.87v-9h-1.53v-.77h3.91Z"/><path id="path855" d="M231.41,239.67h-.87V235h-2.36v4.71h-.87v-9.79h.87v4.3h2.36v-4.3h.87Z"/><path id="path857" d="M236.19,239.67H233v-9.79h3.18v.77h-2.31v3.65H236v.78h-2.1v3.82h2.34Z"/><path id="path859" d="M241.37,239a.69.69,0,0,1-.2.5.64.64,0,0,1-.49.19h-2.47a.68.68,0,0,1-.5-.19.69.69,0,0,1-.2-.5v-2.49h.87v2.41h2.12v-2.33l-2.7-3.27a1.13,1.13,0,0,1-.29-.74v-2a.69.69,0,0,1,.2-.5.68.68,0,0,1,.5-.19h2.47a.64.64,0,0,1,.49.19.69.69,0,0,1,.2.5v2.28h-.87v-2.2h-2.12v2.06L241.1,236a1.12,1.12,0,0,1,.27.73Z"/><path id="path861" d="M243.83,239.67H243v-9.79h.87Z"/><path id="path863" d="M249.28,239a.72.72,0,0,1-.19.5.66.66,0,0,1-.5.19h-2.46a.67.67,0,0,1-.71-.69v-2.49h.87v2.41h2.12v-2.33l-2.7-3.27a1.13,1.13,0,0,1-.29-.74v-2a.67.67,0,0,1,.71-.69h2.46a.66.66,0,0,1,.5.19.72.72,0,0,1,.19.5v2.28h-.87v-2.2h-2.12v2.06L249,236a1.12,1.12,0,0,1,.27.73Z"/><path id="rect30589" class="cls-23" d="M199.28,228.34h4.36c.3,0,.54.86.54,1.91V239c0,1.05-.24,1.91-.54,1.91h-4.36c-.3,0-.54-.86-.54-1.91v-8.75C198.74,229.2,199,228.34,199.28,228.34Z"/><path id="rect30591" class="cls-23" d="M199.34,234.87h4.28a1.94,1.94,0,0,1,.54,0h0a2.22,2.22,0,0,1-.54,0h-4.28a2.22,2.22,0,0,1-.54,0h0A1.94,1.94,0,0,1,199.34,234.87Z"/><path id="rect30593-9" class="cls-24" d="M200.45,235.07h0c.11,0,.19,0,.19.06V238s-.08.07-.19.07h0c-.11,0-.19,0-.19-.07v-2.91S200.34,235.07,200.45,235.07Z"/><path id="rect30593-9-3" class="cls-24" d="M202.5,235.07h0c.1,0,.19,0,.19.06V238s-.09.07-.19.07h0c-.11,0-.2,0-.2-.07v-2.91S202.39,235.07,202.5,235.07Z"/><path id="rect30831" class="cls-25" d="M200.44,238h0v2.86h0V238Z"/><path id="rect30831-6" class="cls-25" d="M202.51,238h0v2.86h0V238Z"/><rect id="rect30979" class="cls-26" x="200.04" y="231.91" width="0.11" height="2.16"/><path id="rect30979-4" class="cls-27" d="M199.83,233.51h.54c.12,0,.21,0,.21,0v.05s-.09,0-.21,0h-.54c-.12,0-.22,0-.22,0v-.05S199.71,233.51,199.83,233.51Z"/><rect id="rect30979-1" class="cls-26" x="201.49" y="231.91" width="0.11" height="2.16"/><path id="rect30979-4-8" class="cls-27" d="M201.27,232.17h.54c.12,0,.22,0,.22,0v0s-.1,0-.22,0h-.54c-.12,0-.22,0-.22,0v0S201.15,232.17,201.27,232.17Z"/><rect id="rect30979-1-3" class="cls-26" x="202.93" y="231.91" width="0.11" height="2.16"/><path id="rect30979-4-8-9" class="cls-27" d="M202.72,233h.53c.12,0,.22,0,.22,0v0s-.1,0-.22,0h-.53c-.12,0-.22,0-.22,0v0S202.6,233,202.72,233Z"/><circle id="path31839" class="cls-28" cx="200.32" cy="230.31" r="0.87"/><path id="rect32912" class="cls-29" d="M200.48,230.57h0s.09.05.17.13h0c.08.09.15.16.14.17h0l-.17-.14h0A.83.83,0,0,1,200.48,230.57Z"/><circle id="path31839-8" class="cls-28" cx="202.46" cy="230.31" r="0.87"/><path id="rect32912-5" class="cls-30" d="M202.48,230h0s0-.1,0-.22h0a.58.58,0,0,1,0-.21h0a.58.58,0,0,1,0,.21h0A.66.66,0,0,1,202.48,230Z"/><g id="text6128" class="cls-10"><text class="cls-31" transform="translate(200.78 236.49)"> </text></g></g><line class="cls-32" x1="159.11" y1="242.11" x2="167.27" y2="227.14"/><line class="cls-32" x1="162.72" y1="242.11" x2="170.88" y2="227.14"/></svg>